# xmcd
#
# Track frame offsets:
#	150
#	16570
#	32415
#	48173
#	66014
#	78516
#	97524
#	114122
#	131883
#	151901
#
# Disc length: 2249 seconds
#
# Revision: 0
# Processed by: cddbd v1.5PL3 Copyright (c) Steve Scherf et al.
# Submitted via: dBpowerAMP V4.0
#
DISCID=6108c70a
DTITLE=Allison Thrash - Talking Thrash
DYEAR=2004
DGENRE=Blues
TTITLE0=Move Over
TTITLE1=It's Blues Mama
TTITLE2=Whoa Baby
TTITLE3=Sugar Is Sugar
TTITLE4=Shake Her Loose
TTITLE5=Mister Wrong
TTITLE6=You Ain't Enough
TTITLE7=On The Blues Express
TTITLE8=Woman Enough
TTITLE9=Mean Mean Mean
EXTD=
EXTT0=
EXTT1=
EXTT2=
EXTT3=
EXTT4=
EXTT5=
EXTT6=
EXTT7=
EXTT8=
EXTT9=
PLAYORDER=
